# xmcd
#
# Track frame offsets:
#       150
#       12087
#       24336
#       37505
#       51005
#       65106
#       76836
#       86943
#       98503
#       115501
#       129631
#       141581
#       152439
#       165659
#       176355
#       189714
#
# Disc length: 2722 seconds
#
# Revision: 1
# Processed by: cddbd v1.5.2PL0 Copyright (c) Steve Scherf et al.
# Submitted via: FreeDbEdit v0.1
#
DISCID=bf0aa010
DTITLE=Roy Orbison - The Collection
DYEAR=1900
DGENRE=
TTITLE0=Only the Lonely
TTITLE1=Cryin'
TTITLE2=In Dreams
TTITLE3=Blue Angel
TTITLE4=Hound Dog Man
TTITLE5=Working for the Man
TTITLE6=Running Scared
TTITLE7=It's Over
TTITLE8=Oh, Pretty Woman
TTITLE9=Penny Arcade
TTITLE10=Dream Baby
TTITLE11=Mean Woman Blues
TTITLE12=Leah
TTITLE13=Lana
TTITLE14=Blue Bayou
TTITLE15=Candy Man
EXTD=
EXTT0=
EXTT1=
EXTT2=
EXTT3=
EXTT4=
EXTT5=
EXTT6=
EXTT7=
EXTT8=
EXTT9=
EXTT10=
EXTT11=
EXTT12=
EXTT13=
EXTT14=
EXTT15=
PLAYORDER=
